<svg width="19" height="33" viewBox="0 0 19 33" fill="none" xmlns="http://www.w3.org/2000/svg">
<path d="M12.2143 0C14.014 0 15.7399 0.724328 17.0125 2.01364C18.2851 3.30295 19 5.05164 19 6.875V23.375C19 24.639 18.7543 25.8906 18.2769 27.0583C17.7994 28.2261 17.0997 29.2871 16.2175 30.1809C15.3354 31.0747 14.2881 31.7836 13.1355 32.2673C11.9829 32.751 10.7476 33 9.5 33C8.25244 33 7.0171 32.751 5.86451 32.2673C4.71191 31.7836 3.66464 31.0747 2.78249 30.1809C1.90033 29.2871 1.20056 28.2261 0.723144 27.0583C0.245725 25.8906 -1.85901e-08 24.639 0 23.375V12.375H2.71429V23.375C2.71429 25.1984 3.42921 26.947 4.70178 28.2364C5.97434 29.5257 7.70032 30.25 9.5 30.25C11.2997 30.25 13.0257 29.5257 14.2982 28.2364C15.5708 26.947 16.2857 25.1984 16.2857 23.375V6.875C16.2857 6.3333 16.1804 5.7969 15.9758 5.29643C15.7712 4.79596 15.4713 4.34123 15.0932 3.95818C14.7152 3.57514 14.2663 3.2713 13.7724 3.064C13.2784 2.8567 12.749 2.75 12.2143 2.75C11.6796 2.75 11.1502 2.8567 10.6562 3.064C10.1622 3.2713 9.71342 3.57514 9.33535 3.95818C8.95728 4.34123 8.65738 4.79596 8.45278 5.29643C8.24817 5.7969 8.14286 6.3333 8.14286 6.875V23.375C8.14286 23.7397 8.28584 24.0894 8.54036 24.3473C8.79487 24.6051 9.14006 24.75 9.5 24.75C9.85994 24.75 10.2051 24.6051 10.4596 24.3473C10.7142 24.0894 10.8571 23.7397 10.8571 23.375V8.25H13.5714V23.375C13.5714 24.469 13.1425 25.5182 12.3789 26.2918C11.6154 27.0654 10.5798 27.5 9.5 27.5C8.42019 27.5 7.38461 27.0654 6.62106 26.2918C5.85752 25.5182 5.42857 24.469 5.42857 23.375V6.875C5.42857 5.05164 6.14349 3.30295 7.41606 2.01364C8.68863 0.724328 10.4146 0 12.2143 0Z" fill="#053BC2"/>
</svg>
