<svg width="28" height="28" viewBox="0 0 28 28" fill="none" xmlns="http://www.w3.org/2000/svg">
<rect width="28" height="28" rx="5.6" fill="#EA0029"/>
<path d="M11.968 7.3H15.7168L15.1184 15.836H12.5664L11.968 7.3ZM13.8512 20.676C13.2528 20.676 12.7659 20.5059 12.3904 20.1656C12.0267 19.8253 11.8448 19.3795 11.8448 18.828C11.8448 18.2648 12.0267 17.8131 12.3904 17.4728C12.7659 17.1325 13.2528 16.9624 13.8512 16.9624C14.4496 16.9624 14.9307 17.1325 15.2944 17.4728C15.6581 17.8131 15.84 18.2648 15.84 18.828C15.84 19.3795 15.6581 19.8253 15.2944 20.1656C14.9307 20.5059 14.4496 20.676 13.8512 20.676Z" fill="white"/>
</svg>
