<svg width="15" height="11" viewBox="0 0 15 11" fill="none" xmlns="http://www.w3.org/2000/svg">
<path fill-rule="evenodd" clip-rule="evenodd" d="M5.379 6.47827L7.5015 7.89727L9.5475 6.51713L14.1337 10.9413C14.013 10.9795 13.884 11 13.7498 11H1.25025C1.08525 11 0.927751 10.9685 0.783001 10.912L5.379 6.47827ZM15 2.8424V9.77753C15 9.95867 14.9595 10.1303 14.8875 10.285L10.392 5.94807L15 2.8424ZM7.07702e-07 2.88127L4.5315 5.9114L0.0795007 10.2073C0.0267725 10.0699 -0.000159175 9.92429 7.07702e-07 9.77753V2.88127ZM13.7498 0C14.4398 0 15 0.547067 15 1.22247V1.6522L7.4985 6.70853L7.07702e-07 1.694V1.22247C7.07702e-07 0.5478 0.559501 0 1.25025 0H13.7498Z" fill="white"/>
</svg>
