<svg width="54" height="69" viewBox="0 0 54 69" fill="none" xmlns="http://www.w3.org/2000/svg">
<path fill-rule="evenodd" clip-rule="evenodd" d="M32.5656 1.47815V0H3.89628C1.03251 0 0 1.02521 0 3.87193V64.6271C0 67.4032 1.05443 68.4552 3.81592 68.4528H50.2133C52.9163 68.4528 54 67.3983 54 64.7196V22.7153C54 22.4244 53.983 22.1346 53.9644 21.8188C53.9558 21.672 53.9468 21.5196 53.9391 21.3589H52.3392C46.7789 21.3719 41.2178 21.3719 35.6558 21.3589C33.4082 21.354 32.5656 20.5042 32.5656 18.2809V1.47815ZM12.2392 33.3375H26.9647H26.9696C31.8805 33.3327 36.7866 33.3327 41.6878 33.3375C43.5068 33.34 44.5345 34.2313 44.5199 35.7532C44.5077 37.1754 43.4289 38.1738 41.7535 38.1738C31.8959 38.1933 22.0391 38.1933 12.1832 38.1738C10.5151 38.1689 9.45578 37.1705 9.47283 35.6948C9.48988 34.2191 10.5005 33.3375 12.2392 33.3375ZM30.8951 54.8377H27.0037C22.0943 54.8442 17.1834 54.8409 12.2708 54.828C10.688 54.8255 9.70417 54.0974 9.49231 52.8287C9.22201 51.2629 10.4031 49.9479 12.1442 49.9479H24.5636H41.7243C43.2243 49.9503 44.2837 50.7442 44.5004 51.9812C44.7683 53.5203 43.6651 54.8109 41.9727 54.8255C39.2748 54.8469 36.5756 54.8435 33.8771 54.8402C32.8829 54.8389 31.8889 54.8377 30.8951 54.8377ZM37.5162 16.3742H49.7311C45.7398 12.3367 41.5854 8.13356 37.5162 4.01324V16.3742Z" fill="#022B87"/>
</svg>
