<svg width="33" height="31" viewBox="0 0 33 31" fill="none" xmlns="http://www.w3.org/2000/svg">
<g clip-path="url(#clip0_117_417)">
<path d="M5.20247 27.9738C5.30833 27.3486 5.44424 26.5314 5.58658 25.7149C5.90059 23.9088 6.21318 22.1026 6.53935 20.2986C6.58513 20.0442 6.49858 19.8844 6.32476 19.7169C4.51865 18.0019 2.71039 16.2897 0.920017 14.5585C-0.465504 13.2227 -0.2595 11.1166 1.35849 10.1255C1.73468 9.90221 2.15238 9.75427 2.58736 9.69031C5.07086 9.31604 7.56007 8.97122 10.0493 8.6327C10.3139 8.59626 10.4398 8.46379 10.55 8.25003C11.6422 6.07104 12.7459 3.89765 13.8332 1.71656C14.3725 0.630915 15.2352 0.0106482 16.474 0.000135252C17.7129 -0.0103777 18.597 0.592367 19.1464 1.6731C20.2722 3.87452 21.406 6.07244 22.5276 8.27666C22.647 8.51075 22.7915 8.60607 23.0647 8.64391C25.589 8.99435 28.1133 9.34478 30.6304 9.73586C31.7634 9.91318 32.5138 10.6119 32.8542 11.6808C33.1947 12.7496 32.9315 13.7056 32.1432 14.4912C30.7312 15.8986 29.2885 17.2758 27.8586 18.6663C27.4523 19.0609 27.0546 19.4653 26.6355 19.8466C26.4631 20.0028 26.4323 20.1556 26.4702 20.3722C26.8908 22.7404 27.2943 25.1115 27.7199 27.479C27.9345 28.667 27.629 29.6741 26.6405 30.4051C25.652 31.1361 24.5475 31.1718 23.4417 30.6154C21.1947 29.4856 18.9509 28.3504 16.7101 27.2099C16.5034 27.104 16.3524 27.1124 16.1536 27.2155C13.9634 28.3509 11.7674 29.4751 9.5729 30.6069C8.82185 30.9952 8.04504 31.1144 7.22532 30.8572C6.02076 30.4787 5.20247 29.3916 5.20247 27.9738Z" fill="#022B87"/>
</g>
<defs>
<clipPath id="clip0_117_417">
<rect width="33" height="31" fill="white"/>
</clipPath>
</defs>
</svg>
