<svg width="24" height="35" viewBox="0 0 24 35" fill="none" xmlns="http://www.w3.org/2000/svg">
<path fill-rule="evenodd" clip-rule="evenodd" d="M7.18701 27.4371H12.0068L16.801 27.4346C17.1545 27.4346 17.1617 27.4346 17.1545 27.0775C17.1341 26.0721 17.282 25.0953 17.6391 24.1542C18.1726 22.7551 19.0796 21.6334 20.1921 20.6479C20.7219 20.1828 21.2071 19.6691 21.6412 19.1136C23.2531 17.0294 23.9906 14.6407 23.9998 12.0178C24.0088 10.3984 23.6858 8.79435 23.0506 7.30468C22.4667 5.92335 21.6289 4.66377 20.5807 3.59129C19.1321 2.10593 17.4152 1.05465 15.4289 0.473666C13.7024 -0.0367096 11.8806 -0.136276 10.1088 0.18292C8.01397 0.54356 6.04895 1.44266 4.40655 2.79199C2.69675 4.18298 1.44297 5.91726 0.682951 7.99329C0.0530002 9.71533 -0.113797 11.496 0.0708531 13.3134C0.272846 15.3028 0.955335 17.1217 2.07241 18.78C2.74113 19.7752 3.57461 20.6188 4.47541 21.4044C5.4411 22.2345 6.15734 23.3164 6.5443 24.5296C6.81414 25.3677 6.87229 26.2267 6.85749 27.0974C6.85239 27.4371 6.85749 27.4371 7.18701 27.4371ZM19.4662 9.24912L10.6326 18.0832C8.89476 16.3428 7.14365 14.5887 5.41396 12.8544L7.76034 10.508L10.7994 13.5562L17.1198 6.89407L19.4662 9.24912ZM17.1428 30.8751H6.87943C6.87296 30.922 6.86887 30.9691 6.86719 31.0164C6.9233 32.7563 8.4714 34.2707 10.2164 34.2809C11.0138 34.2857 11.8125 34.2841 12.6114 34.2825C13.0109 34.2817 13.4105 34.2809 13.8099 34.2809C13.9456 34.2819 14.0811 34.2713 14.2149 34.2493C15.4417 34.0325 16.3175 33.3475 16.8541 32.2319C17.0599 31.8101 17.1591 31.3442 17.1428 30.8751Z" fill="#053BC2"/>
</svg>
