<svg width="204" height="41" viewBox="0 0 204 41" fill="none" xmlns="http://www.w3.org/2000/svg">
<mask id="mask0_24_335" style="mask-type:luminance" maskUnits="userSpaceOnUse" x="0" y="0" width="204" height="41">
<path d="M204 0H0V40.6067H204V0Z" fill="white"/>
</mask>
<g mask="url(#mask0_24_335)">
<path d="M12.9163 2.3877V16.4539H9.47713V6.07705H3.43921V16.4539H0V2.3877H12.9163Z" fill="white"/>
<path d="M30.1872 6.40332C30.5732 7.31556 30.7696 8.31482 30.7696 9.40711C30.7696 10.4994 30.5732 11.4987 30.1872 12.411C29.8013 13.3231 29.2832 14.1016 28.6323 14.7582C27.9814 15.4148 27.2322 15.9261 26.3849 16.2862C25.5384 16.6523 24.6513 16.8325 23.7295 16.8325C22.6985 16.8325 21.8224 16.6523 21.091 16.2979C20.3597 15.9435 19.8755 15.5019 19.6453 14.9732V22.2649H16.2061V2.38858H19.5352V3.86432C19.7714 3.33561 20.2615 2.89409 21.0107 2.53967C21.7589 2.18526 22.6469 2.00513 23.6779 2.00513C24.6166 2.00513 25.5156 2.18526 26.3739 2.53967C27.2322 2.89409 27.9873 3.39952 28.6323 4.05605C29.2832 4.71257 29.8013 5.49691 30.1872 6.40332ZM27.0079 10.9236C27.2034 10.4588 27.3067 9.95325 27.3067 9.40711C27.3067 8.86105 27.2094 8.36138 27.0079 7.90234C26.8056 7.44913 26.5347 7.05408 26.1834 6.7287C25.8322 6.40332 25.4055 6.14768 24.9104 5.96179C24.4152 5.78167 23.8675 5.68872 23.2741 5.68872C22.4107 5.68872 21.6387 5.86877 20.9759 6.22319C20.3072 6.57761 19.8637 7.01921 19.6512 7.54792V11.2896C19.8696 11.8183 20.3072 12.2599 20.9759 12.6143C21.6438 12.9687 22.4107 13.1488 23.2741 13.1488C23.8675 13.1488 24.4152 13.0558 24.9104 12.8758C25.4055 12.6957 25.8322 12.4399 26.1834 12.1089C26.5347 11.7834 26.8115 11.3884 27.0079 10.9236Z" fill="white"/>
<path d="M36.5936 2.3877V10.8297L42.9016 2.3877H46.3408V16.4539H42.9532V8.01759L36.6453 16.4539H33.2061V2.3877H36.5936Z" fill="white"/>
<path d="M63.5087 9.43615C63.5087 10.5111 63.3072 11.4987 62.9153 12.3993C62.5175 13.2999 61.9817 14.0785 61.3028 14.735C60.6231 15.3915 59.8452 15.9028 58.9572 16.2746C58.071 16.6465 57.1373 16.8325 56.141 16.8325C55.1498 16.8325 54.211 16.6465 53.3231 16.2746C52.436 15.9028 51.6589 15.3857 50.9784 14.735C50.3046 14.0785 49.7628 13.2999 49.3658 12.3993C48.968 11.4987 48.7725 10.5111 48.7725 9.43615C48.7725 8.37873 48.9739 7.39682 49.3658 6.48466C49.7628 5.5725 50.2986 4.78816 50.9784 4.11996C51.6589 3.45759 52.436 2.93472 53.3231 2.56287C54.2051 2.19101 55.1439 2.00513 56.141 2.00513C57.1314 2.00513 58.071 2.19101 58.9572 2.56287C59.8452 2.93472 60.6231 3.45759 61.3028 4.11996C61.9757 4.78232 62.5175 5.5725 62.9153 6.48466C63.3072 7.39682 63.5087 8.37873 63.5087 9.43615ZM52.5401 7.91977C52.3386 8.38457 52.2404 8.89 52.2404 9.43615C52.2404 9.98237 52.3386 10.482 52.5401 10.941C52.7356 11.3942 53.0124 11.7893 53.3637 12.1146C53.715 12.4399 54.1298 12.6957 54.608 12.8815C55.0863 13.0617 55.5933 13.1546 56.1351 13.1546C56.6768 13.1546 57.183 13.0617 57.6494 12.8815C58.1158 12.7014 58.5314 12.4459 58.8827 12.1146C59.234 11.7893 59.5167 11.3942 59.7233 10.941C59.9315 10.4878 60.0348 9.98237 60.0348 9.43615C60.0348 8.89 59.9315 8.38457 59.7233 7.91977C59.5167 7.45497 59.234 7.05984 58.8827 6.73454C58.5314 6.40916 58.1218 6.15352 57.6494 5.96764C57.1771 5.78751 56.6768 5.69448 56.1351 5.69448C55.5933 5.69448 55.0804 5.78751 54.608 5.96764C54.1298 6.14768 53.715 6.40332 53.3637 6.73454C53.0124 7.05984 52.7356 7.45497 52.5401 7.91977Z" fill="white"/>
<path d="M79.8697 6.40332C80.2557 7.31556 80.4513 8.31482 80.4513 9.40711C80.4513 10.4994 80.2557 11.4987 79.8697 12.411C79.4837 13.3231 78.9649 14.1016 78.3139 14.7582C77.663 15.4148 76.9147 15.9261 76.0674 16.2862C75.2209 16.6523 74.333 16.8325 73.4111 16.8325C72.3801 16.8325 71.5049 16.6523 70.7727 16.2979C70.0413 15.9435 69.5571 15.5019 69.3269 14.9732V22.2649H65.8877V2.38858H69.2177V3.86432C69.4539 3.33561 69.9431 2.89409 70.6923 2.53967C71.4414 2.18526 72.3285 2.00513 73.3595 2.00513C74.2991 2.00513 75.1972 2.18526 76.0555 2.53967C76.9147 2.89409 77.6689 3.39952 78.3139 4.05605C78.9589 4.71257 79.4778 5.49691 79.8697 6.40332ZM76.6836 10.9236C76.8791 10.4588 76.9833 9.95325 76.9833 9.40711C76.9833 8.86105 76.8851 8.36138 76.6836 7.90234C76.4822 7.44913 76.2113 7.05408 75.86 6.7287C75.5087 6.40332 75.0821 6.14768 74.5869 5.96179C74.0917 5.78167 73.544 5.68872 72.9507 5.68872C72.0864 5.68872 71.3144 5.86877 70.6525 6.22319C69.9838 6.57761 69.5402 7.01921 69.3269 7.54792V11.2896C69.5461 11.8183 69.9838 12.2599 70.6525 12.6143C71.3204 12.9687 72.0864 13.1488 72.9507 13.1488C73.544 13.1488 74.0917 13.0558 74.5869 12.8758C75.0821 12.6957 75.5087 12.4399 75.86 12.1089C76.2113 11.7777 76.4881 11.3884 76.6836 10.9236Z" fill="white"/>
<path d="M86.2636 2.3877V10.8297L92.5715 2.3877H96.0107V16.4539H92.624V8.01759L86.3152 16.4539H82.876V2.3877H86.2636Z" fill="white"/>
<path d="M110.351 6.07705H106.041V16.4539H102.603V6.07705H98.2988V2.3877H110.351V6.07705Z" fill="white"/>
<path d="M119.476 13.3394C120.34 13.3394 121.175 13.1825 121.965 12.863C122.76 12.5434 123.353 12.1193 123.75 11.5906L124.805 14.2691C124.373 14.9953 123.682 15.6053 122.731 16.0992C121.78 16.5931 120.657 16.837 119.361 16.837C118.295 16.837 117.31 16.6627 116.394 16.32C115.484 15.9713 114.695 15.4833 114.026 14.8442C113.357 14.2051 112.833 13.4323 112.453 12.526C112.073 11.6138 111.883 10.5854 111.883 9.44087C111.883 8.44152 112.05 7.49449 112.385 6.59977C112.718 5.7108 113.197 4.92062 113.819 4.23506C114.441 3.55526 115.19 3.00911 116.065 2.60822C116.941 2.20733 117.926 2.00977 119.032 2.00977C120.063 2.00977 120.997 2.21309 121.832 2.62566C122.674 3.03231 123.387 3.57853 123.97 4.26409C124.557 4.94965 125.012 5.73399 125.335 6.62872C125.657 7.52352 125.824 8.45896 125.824 9.44087C125.824 9.64419 125.819 9.85335 125.813 10.08C125.801 10.3066 125.779 10.5041 125.744 10.6668H115.403C115.564 11.5964 116.014 12.2761 116.757 12.7003C117.506 13.1244 118.411 13.3394 119.476 13.3394ZM122.322 7.82571C122.212 7.082 121.849 6.51258 121.239 6.11753C120.622 5.72824 119.89 5.53067 119.044 5.53067C118.197 5.53067 117.437 5.72824 116.768 6.11753C116.1 6.51258 115.697 7.07616 115.553 7.82571H122.322Z" fill="white"/>
<path d="M139.438 6.07705H135.128V16.4539H131.695V6.07705H127.386V2.3877H139.438V6.07705Z" fill="white"/>
<path d="M146.143 5.26947C145.803 5.26947 145.492 5.32179 145.21 5.42641C144.922 5.53095 144.663 5.67037 144.432 5.8389C144.202 6.00735 143.988 6.20491 143.799 6.42567C143.608 6.64643 143.446 6.88472 143.303 7.13451L142.075 5.01384C142.18 4.60711 142.358 4.22366 142.611 3.86348C142.865 3.50322 143.176 3.18952 143.545 2.92221C143.914 2.65497 144.34 2.43997 144.824 2.28312C145.302 2.12627 145.826 2.04492 146.385 2.04492C147.111 2.04492 147.756 2.1553 148.315 2.37606C148.873 2.59682 149.34 2.90477 149.721 3.2999C150.095 3.69495 150.383 4.15391 150.579 4.67686C150.774 5.19973 150.873 5.76339 150.873 6.3676C150.873 6.87887 150.815 7.34951 150.7 7.7736C150.585 8.19776 150.412 8.61609 150.181 9.02274C149.951 9.42947 149.669 9.84195 149.335 10.2604C148.994 10.6787 148.608 11.1376 148.165 11.6373L146.766 13.2293H151.149V16.4538H142.185V13.9556L146.177 9.57472C146.46 9.26102 146.707 8.98786 146.915 8.74975C147.123 8.51147 147.295 8.29071 147.433 8.06995C147.572 7.8491 147.675 7.64586 147.745 7.44246C147.814 7.23913 147.854 7.01253 147.854 6.76265C147.854 6.34433 147.698 5.98991 147.393 5.6994C147.076 5.41473 146.667 5.26947 146.143 5.26947Z" fill="#EA0029"/>
<path d="M157.077 2.58523C157.97 2.22497 158.909 2.04492 159.906 2.04492C160.897 2.04492 161.835 2.22497 162.734 2.58523C163.627 2.94548 164.411 3.45091 165.079 4.10168C165.753 4.75237 166.283 5.53095 166.675 6.43736C167.067 7.34367 167.262 8.33718 167.262 9.41787C167.262 10.5102 167.067 11.5037 166.675 12.4042C166.283 13.3048 165.753 14.0833 165.079 14.7341C164.405 15.3848 163.627 15.8903 162.734 16.2505C161.841 16.6108 160.897 16.7908 159.906 16.7908C158.915 16.7908 157.97 16.6108 157.077 16.2505C156.184 15.8903 155.401 15.3848 154.733 14.7341C154.059 14.0833 153.528 13.3048 153.137 12.4042C152.745 11.5037 152.549 10.5102 152.549 9.41787C152.549 8.33718 152.745 7.34367 153.137 6.43736C153.528 5.53095 154.059 4.75237 154.733 4.10168C155.401 3.45675 156.184 2.95124 157.077 2.58523ZM159.906 13.5663C160.505 13.5663 161.069 13.4675 161.599 13.2583C162.129 13.0549 162.585 12.7702 162.971 12.4101C163.357 12.0498 163.656 11.614 163.881 11.1086C164.1 10.6031 164.215 10.0395 164.215 9.42371C164.215 8.81941 164.106 8.26167 163.881 7.74456C163.656 7.23329 163.357 6.79753 162.971 6.43143C162.585 6.07126 162.129 5.78659 161.599 5.58326C161.069 5.37986 160.505 5.27532 159.906 5.27532C159.295 5.27532 158.725 5.37986 158.207 5.58326C157.688 5.78659 157.233 6.07126 156.847 6.43143C156.461 6.79177 156.156 7.23329 155.936 7.74456C155.717 8.25583 155.603 8.81941 155.603 9.42371C155.603 10.0454 155.712 10.6031 155.936 11.1086C156.156 11.614 156.461 12.0498 156.847 12.4101C157.233 12.7702 157.683 13.0549 158.207 13.2583C158.725 13.4616 159.289 13.5663 159.906 13.5663Z" fill="#EA0029"/>
<path d="M172.142 13.5779C172.764 13.5779 173.271 13.4268 173.651 13.1247C174.037 12.8226 174.227 12.4159 174.227 11.9046C174.227 11.4455 174.055 11.0795 173.709 10.8123C173.363 10.5451 172.902 10.4113 172.314 10.4113C171.911 10.4113 171.565 10.4579 171.272 10.5508C170.978 10.6438 170.759 10.7426 170.621 10.8472L170.131 8.64516L172.528 5.61809H168.668V2.3877H176.485V4.68849L174.106 7.63422C174.446 7.71548 174.797 7.84914 175.166 8.03502C175.535 8.22675 175.875 8.48823 176.191 8.81945C176.503 9.15643 176.762 9.57476 176.963 10.086C177.166 10.5973 177.263 11.2132 177.263 11.9336C177.263 12.6018 177.143 13.2292 176.901 13.8219C176.658 14.4087 176.318 14.9258 175.869 15.3673C175.419 15.8089 174.884 16.1518 174.25 16.4074C173.616 16.663 172.914 16.7909 172.136 16.7909C171.548 16.7909 171.024 16.7269 170.557 16.5933C170.091 16.4597 169.682 16.2912 169.331 16.0704C168.979 15.8554 168.685 15.6172 168.454 15.3499C168.218 15.0885 168.052 14.8213 167.948 14.5424L168.651 11.9453C169.025 12.4043 169.486 12.7877 170.033 13.0957C170.587 13.421 171.289 13.5779 172.142 13.5779Z" fill="#EA0029"/>
<path d="M183.191 2.58523C184.085 2.22497 185.024 2.04492 186.02 2.04492C187.011 2.04492 187.95 2.22497 188.849 2.58523C189.742 2.94548 190.525 3.45091 191.194 4.10168C191.867 4.75237 192.398 5.53095 192.789 6.43736C193.181 7.34367 193.377 8.33718 193.377 9.41787C193.377 10.5102 193.181 11.5037 192.789 12.4042C192.398 13.3048 191.867 14.0833 191.194 14.7341C190.519 15.3848 189.742 15.8903 188.849 16.2505C187.956 16.6108 187.017 16.7908 186.02 16.7908C185.03 16.7908 184.085 16.6108 183.191 16.2505C182.299 15.8903 181.515 15.3848 180.841 14.7341C180.167 14.0833 179.637 13.3048 179.246 12.4042C178.854 11.5037 178.658 10.5102 178.658 9.41787C178.658 8.33718 178.854 7.34367 179.246 6.43736C179.637 5.53095 180.167 4.75237 180.841 4.10168C181.515 3.45675 182.299 2.95124 183.191 2.58523ZM186.02 13.5663C186.619 13.5663 187.184 13.4675 187.714 13.2583C188.245 13.0549 188.699 12.7702 189.085 12.4101C189.471 12.0498 189.777 11.614 189.995 11.1086C190.214 10.6031 190.329 10.0395 190.329 9.42371C190.329 8.81941 190.22 8.26167 189.995 7.74456C189.777 7.23329 189.471 6.79753 189.085 6.43143C188.699 6.07126 188.245 5.78659 187.714 5.58326C187.184 5.37986 186.619 5.27532 186.02 5.27532C185.41 5.27532 184.839 5.37986 184.321 5.58326C183.796 5.78659 183.347 6.07126 182.961 6.43143C182.575 6.79177 182.275 7.23329 182.051 7.74456C181.827 8.25583 181.716 8.81941 181.716 9.42371C181.716 10.0454 181.827 10.6031 182.051 11.1086C182.275 11.614 182.575 12.0498 182.961 12.4101C183.347 12.7702 183.796 13.0549 184.321 13.2583C184.839 13.4616 185.404 13.5663 186.02 13.5663Z" fill="#EA0029"/>
<path d="M200.779 0H197.985L194.765 5.62414H197.553L200.779 0Z" fill="#EA0029"/>
<path d="M197.985 0H200.779L204 5.62414H201.211L197.985 0Z" fill="#EA0029"/>
<path d="M9.94348 30.5842V34.7617L13.0661 30.5842H14.7709V37.5504H13.0949V33.373L9.96632 37.5504H8.2666V30.5842H9.94348Z" fill="#EA0029"/>
<path d="M16.5278 35.7261C16.6717 35.4821 16.8097 35.209 16.9426 34.9011C17.0755 34.5932 17.1957 34.2562 17.3058 33.8785C17.4149 33.5067 17.4953 33.1 17.5588 32.67C17.6223 32.2401 17.6511 31.7753 17.6511 31.2756V30.5842H22.6402V35.7203H23.6078V39.398H21.9605V37.5447H17.4666V39.398H15.8193V35.7203H16.5278V35.7261ZM20.9346 35.7261V32.4144H19.1782C19.0969 33.1987 18.9758 33.8553 18.815 34.384C18.6533 34.9128 18.4807 35.3601 18.2902 35.7261H20.9346Z" fill="#EA0029"/>
<path d="M28.0839 36.0049C28.5106 36.0049 28.9253 35.9235 29.3172 35.7667C29.7083 35.6098 30.002 35.4007 30.2044 35.1392L30.7283 36.4639C30.515 36.8242 30.1696 37.1263 29.7024 37.3703C29.23 37.6143 28.6773 37.7363 28.0323 37.7363C27.5024 37.7363 27.0182 37.6492 26.5628 37.4807C26.1133 37.3122 25.7223 37.0681 25.3879 36.7486C25.0536 36.4291 24.8005 36.0514 24.61 35.5982C24.4204 35.1508 24.3281 34.6395 24.3281 34.0702C24.3281 33.5764 24.4085 33.1056 24.5753 32.6641C24.7429 32.2225 24.9791 31.8333 25.2846 31.4963C25.5953 31.1593 25.9644 30.892 26.3961 30.6945C26.8278 30.497 27.3179 30.3982 27.8647 30.3982C28.3717 30.3982 28.839 30.497 29.2538 30.7004C29.6685 30.9036 30.0198 31.1768 30.3135 31.5138C30.6013 31.8507 30.8316 32.24 30.9932 32.6816C31.1549 33.1231 31.2353 33.5879 31.2353 34.076C31.2353 34.1747 31.2354 34.2793 31.2294 34.3955C31.2235 34.5059 31.2125 34.6047 31.1947 34.686H26.0736C26.154 35.145 26.3791 35.482 26.7414 35.6912C27.1105 35.9004 27.554 36.0049 28.0839 36.0049ZM29.4899 33.2742C29.4374 32.9023 29.2588 32.6235 28.9541 32.4317C28.6485 32.24 28.2854 32.1413 27.8706 32.1413C27.4558 32.1413 27.0758 32.24 26.7414 32.4317C26.413 32.6235 26.2115 32.9082 26.137 33.2742H29.4899Z" fill="#EA0029"/>
<path d="M39.4338 32.5712C39.6235 33.0244 39.7216 33.5182 39.7216 34.0585C39.7216 34.5988 39.6235 35.0985 39.4338 35.5459C39.2434 35.9991 38.9844 36.3826 38.6619 36.7079C38.3394 37.0333 37.9703 37.2832 37.5496 37.4633C37.1289 37.6434 36.6913 37.7363 36.2359 37.7363C35.7238 37.7363 35.2912 37.6492 34.9281 37.4748C34.5658 37.3006 34.3296 37.0797 34.2086 36.8183V40.4264H32.5029V30.5841H34.151V31.3162C34.2661 31.0548 34.5082 30.834 34.8824 30.6597C35.2514 30.4854 35.695 30.3982 36.202 30.3982C36.6684 30.3982 37.112 30.4854 37.5377 30.6597C37.9644 30.834 38.3334 31.0838 38.6559 31.4091C38.9844 31.7345 39.2375 32.1238 39.4338 32.5712ZM37.8552 34.8081C37.9534 34.5756 38.005 34.3258 38.005 34.0585C38.005 33.7913 37.9534 33.5415 37.8552 33.3149C37.757 33.0882 37.619 32.8965 37.4463 32.7338C37.2728 32.5712 37.0603 32.4434 36.8182 32.3562C36.5702 32.2691 36.2994 32.2225 36.0056 32.2225C35.579 32.2225 35.1989 32.3097 34.8654 32.484C34.5311 32.6583 34.3118 32.8791 34.2086 33.1405V34.994C34.3178 35.2554 34.537 35.4762 34.8654 35.6505C35.1939 35.8248 35.5739 35.912 36.0056 35.912C36.2994 35.912 36.5702 35.8655 36.8182 35.7784C37.0654 35.6912 37.2728 35.5634 37.4463 35.4007C37.6249 35.238 37.757 35.0404 37.8552 34.8081Z" fill="#EA0029"/>
<path d="M40.9023 31.6245C41.0292 31.427 41.1841 31.2527 41.3805 31.0958C41.5701 30.9447 41.7834 30.8169 42.0196 30.7124C42.2507 30.6077 42.4979 30.5322 42.7628 30.4742C43.0278 30.4219 43.2927 30.3928 43.5576 30.3928C44.0131 30.3928 44.4278 30.4567 44.7969 30.5787C45.1651 30.7065 45.4876 30.8867 45.7525 31.1191C46.0175 31.3515 46.2308 31.642 46.3747 31.9905C46.5245 32.3392 46.594 32.7343 46.594 33.1759V37.545H44.9467V36.935C44.7791 37.1963 44.5141 37.3939 44.1569 37.5276C43.7997 37.6611 43.4315 37.7309 43.0565 37.7309C42.6883 37.7309 42.3539 37.6786 42.0484 37.5682C41.7436 37.4578 41.4787 37.3067 41.2535 37.1151C41.0233 36.9234 40.8506 36.6851 40.7236 36.4004C40.5967 36.1157 40.5332 35.7961 40.5332 35.4475C40.5332 35.0758 40.6085 34.7503 40.7524 34.4656C40.9023 34.181 41.0978 33.9428 41.3517 33.751C41.5989 33.5592 41.8875 33.4082 42.216 33.3094C42.5444 33.2107 42.8779 33.1584 43.2301 33.1584C43.6787 33.1584 44.0418 33.2107 44.3246 33.3153C44.6064 33.4198 44.7969 33.5303 44.8942 33.6464V33.4663C44.8942 33.0596 44.7622 32.7343 44.4972 32.4902C44.2323 32.2462 43.8463 32.1242 43.3393 32.1242C42.9016 32.1242 42.5038 32.2113 42.1525 32.3798C41.8012 32.5483 41.5185 32.7691 41.3111 33.0306L40.9023 31.6245ZM44.8942 35.0466C44.8256 34.9188 44.664 34.8084 44.4278 34.7155C44.1857 34.6225 43.9098 34.5761 43.5983 34.5761C43.1488 34.5761 42.8144 34.6458 42.5901 34.791C42.3658 34.9363 42.2558 35.1222 42.2558 35.3604C42.2558 35.5928 42.3709 35.7846 42.596 35.924C42.8263 36.0634 43.1547 36.1331 43.5813 36.1331C43.892 36.1331 44.1688 36.075 44.4109 35.9646C44.653 35.8543 44.8138 35.7149 44.8942 35.5522V35.0466Z" fill="#EA0029"/>
<path d="M54.4174 30.5842H56.0655L57.1489 37.5504H55.4611L54.8618 33.8727L53.2484 37.5504H51.883L50.2756 33.8727L49.6593 37.5504H47.9258L48.9966 30.5842H50.5295L52.4705 35.0347L54.4174 30.5842Z" fill="#EA0029"/>
<path d="M60.2073 30.5842V34.7617L63.3299 30.5842H65.0355V37.5504H63.3587V33.373L60.2369 37.5504H58.5312V30.5842H60.2073Z" fill="#EA0029"/>
<path d="M75.8715 36.493C75.6641 36.8357 75.3298 37.1263 74.8634 37.3703C74.397 37.6143 73.8552 37.7363 73.239 37.7363C72.7548 37.7363 72.3002 37.6434 71.8618 37.4633C71.4301 37.2832 71.0441 37.0333 70.7097 36.7079C70.3754 36.3826 70.1113 35.9933 69.909 35.5459C69.7134 35.0986 69.6152 34.5988 69.6152 34.0585C69.6152 33.5182 69.7134 33.0185 69.909 32.5712C70.1054 32.118 70.3703 31.7345 70.7097 31.4091C71.05 31.0838 71.4301 30.834 71.8618 30.6597C72.2943 30.4854 72.7548 30.3982 73.239 30.3982C73.8552 30.3982 74.391 30.5203 74.8405 30.7642C75.29 31.0082 75.6184 31.2988 75.814 31.6299L75.3298 33.065C75.1512 32.8501 74.8981 32.6525 74.5637 32.484C74.2353 32.3155 73.8552 32.2284 73.4235 32.2284C72.7954 32.2284 72.3003 32.3968 71.9193 32.7338C71.5452 33.0708 71.3556 33.5182 71.3556 34.0644C71.3556 34.6163 71.5452 35.0579 71.9193 35.4007C72.2943 35.7435 72.7954 35.912 73.4235 35.912C73.8611 35.912 74.2471 35.8248 74.5756 35.6446C74.904 35.4646 75.163 35.267 75.3535 35.0521L75.8715 36.493Z" fill="#EA0029"/>
<path d="M82.4911 32.4086H80.3596V37.5504H78.6599V32.4086H76.5234V30.5842H82.4911V32.4086Z" fill="#EA0029"/>
<path d="M83.5107 31.6245C83.6376 31.427 83.7934 31.2527 83.9889 31.0958C84.1794 30.9447 84.3927 30.8169 84.6288 30.7124C84.8591 30.6077 85.1063 30.5322 85.3712 30.4742C85.637 30.4219 85.9011 30.3928 86.1669 30.3928C86.6215 30.3928 87.0362 30.4567 87.4053 30.5787C87.7735 30.7065 88.0968 30.8867 88.3609 31.1191C88.6267 31.3515 88.8392 31.642 88.9831 31.9905C89.1329 32.3392 89.2024 32.7343 89.2024 33.1759V37.545H87.5551V36.935C87.3816 37.1963 87.1226 37.3939 86.7654 37.5276C86.409 37.6611 86.0399 37.7309 85.6649 37.7309C85.2967 37.7309 84.9623 37.6786 84.6568 37.5682C84.352 37.4578 84.0871 37.3067 83.8619 37.1151C83.6317 36.9234 83.459 36.6851 83.3321 36.4004C83.2051 36.1157 83.1416 35.7961 83.1416 35.4475C83.1416 35.0758 83.2169 34.7503 83.3608 34.4656C83.5107 34.181 83.707 33.9428 83.9601 33.751C84.2073 33.5592 84.496 33.4082 84.8244 33.3094C85.1528 33.2107 85.4872 33.1584 85.8376 33.1584C86.2871 33.1584 86.6502 33.2107 86.933 33.3153C87.2148 33.4198 87.4053 33.5303 87.5035 33.6464V33.4663C87.5035 33.0596 87.3706 32.7343 87.1056 32.4902C86.8407 32.2462 86.4547 32.1242 85.9477 32.1242C85.51 32.1242 85.1122 32.2113 84.7609 32.3798C84.4096 32.5483 84.1269 32.7691 83.9195 33.0306L83.5107 31.6245ZM87.5086 35.0466C87.4391 34.9188 87.2783 34.8084 87.0422 34.7155C86.8001 34.6225 86.5233 34.5761 86.2126 34.5761C85.7631 34.5761 85.4288 34.6458 85.2104 34.791C84.9852 34.9363 84.876 35.1222 84.876 35.3604C84.876 35.5928 84.9911 35.7846 85.2154 35.924C85.4465 36.0634 85.775 36.1331 86.2007 36.1331C86.5122 36.1331 86.7891 36.075 87.0311 35.9646C87.2724 35.8543 87.4341 35.7149 87.5145 35.5522V35.0466H87.5086Z" fill="#EA0029"/>
<path d="M92.5886 30.5842V33.0593H95.619V30.5842H97.3187V37.5504H95.619V34.8836H92.5886V37.5504H90.8838V30.5842H92.5886Z" fill="#EA0029"/>
<path d="M105.885 34.076C105.885 34.6105 105.788 35.0986 105.591 35.5401C105.396 35.9875 105.131 36.3709 104.796 36.6963C104.462 37.0217 104.076 37.2773 103.638 37.4574C103.201 37.6434 102.734 37.7363 102.244 37.7363C101.755 37.7363 101.289 37.6434 100.85 37.4574C100.413 37.2716 100.027 37.0158 99.6921 36.6963C99.3586 36.3709 99.0929 35.9875 98.8914 35.5401C98.6959 35.0927 98.5977 34.6047 98.5977 34.076C98.5977 33.5531 98.6959 33.065 98.8914 32.6176C99.0869 32.1644 99.3527 31.7752 99.6921 31.4499C100.027 31.1186 100.413 30.863 100.85 30.6771C101.289 30.4911 101.755 30.3982 102.244 30.3982C102.734 30.3982 103.201 30.4911 103.638 30.6771C104.076 30.863 104.462 31.1186 104.796 31.4499C105.131 31.781 105.396 32.1703 105.591 32.6176C105.788 33.065 105.885 33.5531 105.885 34.076ZM100.458 33.3206C100.361 33.5531 100.308 33.8029 100.308 34.0702C100.308 34.3433 100.355 34.5873 100.458 34.8138C100.556 35.0404 100.694 35.2321 100.867 35.3948C101.041 35.5575 101.247 35.6853 101.483 35.7725C101.72 35.8596 101.974 35.9061 102.238 35.9061C102.509 35.9061 102.757 35.8596 102.987 35.7725C103.218 35.6795 103.425 35.5575 103.599 35.3948C103.771 35.2321 103.909 35.0404 104.013 34.8138C104.117 34.5873 104.168 34.3433 104.168 34.0702C104.168 33.8029 104.117 33.5472 104.013 33.3206C103.909 33.0882 103.771 32.8965 103.599 32.7338C103.425 32.5712 103.218 32.4434 102.987 32.3562C102.757 32.2691 102.503 32.2225 102.238 32.2225C101.974 32.2225 101.72 32.2691 101.483 32.3562C101.247 32.4434 101.041 32.5712 100.867 32.7338C100.694 32.8965 100.556 33.094 100.458 33.3206Z" fill="#EA0029"/>
<path d="M109.814 30.5842C110.166 30.5842 110.488 30.6249 110.794 30.7062C111.099 30.7876 111.358 30.9095 111.583 31.0781C111.807 31.2465 111.981 31.4499 112.113 31.6998C112.246 31.9496 112.309 32.2401 112.309 32.5712C112.309 32.8617 112.268 33.0941 112.182 33.2801C112.096 33.466 111.969 33.6403 111.802 33.8029C112.061 33.9715 112.274 34.1865 112.441 34.448C112.609 34.7036 112.689 35.0289 112.689 35.4298C112.689 35.7726 112.62 36.0747 112.482 36.3362C112.343 36.5977 112.159 36.8184 111.923 36.9985C111.693 37.1786 111.421 37.3181 111.11 37.411C110.799 37.5041 110.477 37.5504 110.137 37.5504H107.158V30.5842H109.814ZM108.794 32.1819V33.3614H109.999C110.206 33.3614 110.367 33.3033 110.482 33.1871C110.598 33.0709 110.655 32.9373 110.655 32.7804C110.655 32.6177 110.598 32.4783 110.482 32.3621C110.367 32.2459 110.2 32.1878 109.987 32.1878H108.794V32.1819ZM108.794 34.7501V35.9527H110.361C110.558 35.9527 110.713 35.8946 110.834 35.7842C110.949 35.6738 111.007 35.5227 111.007 35.3427C111.007 35.1916 110.949 35.0522 110.834 34.9302C110.718 34.8081 110.558 34.7501 110.35 34.7501H108.794Z" fill="#EA0029"/>
<path d="M118.946 30.5842V37.5504H117.241V35.4821H116.675L115.281 37.5504H113.312L114.878 35.2265C114.475 35.0173 114.165 34.7326 113.94 34.3724C113.714 34.0121 113.605 33.5764 113.605 33.0593C113.605 32.67 113.675 32.3272 113.807 32.0193C113.94 31.7114 114.123 31.4558 114.354 31.2408C114.585 31.0316 114.861 30.8689 115.184 30.7527C115.506 30.6423 115.853 30.5842 116.215 30.5842H118.946ZM116.094 32.3156C115.841 32.3156 115.644 32.3912 115.506 32.5364C115.363 32.6875 115.293 32.8617 115.293 33.0709C115.293 33.2859 115.368 33.4602 115.523 33.5939C115.673 33.7274 115.87 33.7914 116.1 33.7914H117.252V32.3156H116.094Z" fill="#EA0029"/>
<path d="M126.025 32.4086H123.895V37.5504H122.195V32.4086H120.058V30.5842H126.025V32.4086Z" fill="#EA0029"/>
<path d="M132.875 36.493C132.669 36.8357 132.335 37.1263 131.867 37.3703C131.401 37.6143 130.86 37.7363 130.243 37.7363C129.76 37.7363 129.304 37.6434 128.867 37.4633C128.434 37.2832 128.048 37.0333 127.714 36.7079C127.38 36.3826 127.115 35.9933 126.914 35.5459C126.717 35.0986 126.619 34.5988 126.619 34.0585C126.619 33.5182 126.717 33.0185 126.914 32.5712C127.109 32.118 127.374 31.7345 127.714 31.4091C128.054 31.0838 128.434 30.834 128.867 30.6597C129.298 30.4854 129.76 30.3982 130.243 30.3982C130.86 30.3982 131.395 30.5203 131.845 30.7642C132.294 31.0082 132.622 31.2988 132.818 31.6299L132.335 33.065C132.156 32.8501 131.902 32.6525 131.568 32.484C131.24 32.3155 130.859 32.2284 130.427 32.2284C129.799 32.2284 129.304 32.3968 128.924 32.7338C128.549 33.0708 128.359 33.5182 128.359 34.0644C128.359 34.6163 128.549 35.0579 128.924 35.4007C129.298 35.7435 129.799 35.912 130.427 35.912C130.865 35.912 131.251 35.8248 131.579 35.6446C131.908 35.4646 132.167 35.267 132.357 35.0521L132.875 36.493Z" fill="#EA0029"/>
<path d="M139.167 30.5842V37.5504H137.462V35.4821H136.897L135.503 37.5504H133.533L135.1 35.2265C134.697 35.0173 134.386 34.7326 134.161 34.3724C133.936 34.0121 133.827 33.5764 133.827 33.0593C133.827 32.67 133.895 32.3272 134.028 32.0193C134.161 31.7114 134.345 31.4558 134.576 31.2408C134.806 31.0316 135.089 30.8689 135.406 30.7527C135.728 30.6423 136.073 30.5842 136.437 30.5842H139.167ZM136.31 32.3156C136.057 32.3156 135.861 32.3912 135.722 32.5364C135.578 32.6875 135.509 32.8617 135.509 33.0709C135.509 33.2859 135.584 33.4602 135.739 33.5939C135.889 33.7274 136.085 33.7914 136.316 33.7914H137.468V32.3156H136.31Z" fill="#EA0029"/>
<path d="M4.51054 30.59L7.36822 37.5563L5.31724 37.5504L3.692 33.466L2.07355 37.5504H0.0166016L2.88024 30.5842L4.51054 30.59Z" fill="#EA0029"/>
</g>
</svg>
