<svg width="44" height="56" viewBox="0 0 44 56" fill="none" xmlns="http://www.w3.org/2000/svg">
<path d="M4.5527e-06 3.03584L5.143e-06 52.5372C0.00168405 53.0384 0.149386 53.5297 0.427209 53.9581C0.705033 54.3866 1.10245 54.736 1.5767 54.9689C2.05095 55.2017 2.58407 55.309 3.11866 55.2794C3.65326 55.2497 4.16909 55.0842 4.61063 54.8006L42.8121 30.0499C44.396 29.0241 44.396 26.5545 42.8121 25.526L4.61063 0.775272C4.17001 0.488782 3.65392 0.320778 3.11843 0.289513C2.58295 0.258247 2.04855 0.364916 1.5733 0.597931C1.09804 0.830945 0.700109 1.18139 0.422736 1.6112C0.145364 2.041 -0.000840539 2.53373 4.5527e-06 3.03584Z" fill="#E1EAFD"/>
</svg>
