<svg width="37" height="50" viewBox="0 0 37 50" fill="none" xmlns="http://www.w3.org/2000/svg">
<path d="M36.8092 46.7043L36.8092 2.45432C36.8078 2.00631 36.6843 1.56717 36.4518 1.18416C36.2194 0.801149 35.887 0.48878 35.4902 0.280673C35.0935 0.0725655 34.6475 -0.0233995 34.2003 0.00310891C33.753 0.0296173 33.3215 0.177594 32.9521 0.431112L0.993781 22.5561C-0.33126 23.4731 -0.33126 25.6807 0.993781 26.6001L32.9521 48.7251C33.3207 48.9812 33.7525 49.1313 34.2004 49.1593C34.6484 49.1872 35.0955 49.0919 35.4931 48.8836C35.8906 48.6753 36.2235 48.362 36.4556 47.9778C36.6876 47.5936 36.8099 47.1532 36.8092 46.7043Z" fill="#053BC2"/>
</svg>
