<svg width="37" height="50" viewBox="0 0 37 50" fill="none" xmlns="http://www.w3.org/2000/svg">
<path d="M2.80237e-05 2.45974L2.60895e-05 46.7097C0.00143059 47.1578 0.124994 47.5969 0.357414 47.9799C0.589834 48.3629 0.922306 48.6753 1.31905 48.8834C1.7158 49.0915 2.16179 49.1875 2.60901 49.161C3.05624 49.1344 3.48777 48.9865 3.85715 48.7329L35.8155 26.608C37.1405 25.691 37.1405 23.4834 35.8155 22.564L3.85715 0.438992C3.48854 0.182895 3.0568 0.0327137 2.60882 0.00476503C2.16085 -0.0231837 1.71379 0.0721693 1.3162 0.280464C0.918617 0.488759 0.585717 0.802029 0.353674 1.18624C0.121632 1.57045 -0.000678933 2.0109 2.80237e-05 2.45974Z" fill="#053BC2"/>
</svg>
