<svg width="385" height="77" viewBox="0 0 385 77" fill="none" xmlns="http://www.w3.org/2000/svg">
<mask id="mask0_24_160" style="mask-type:luminance" maskUnits="userSpaceOnUse" x="0" y="0" width="385" height="77">
<path d="M384.548 0H0V76.5451H384.548V0Z" fill="white"/>
</mask>
<g mask="url(#mask0_24_160)">
<path d="M24.3478 4.50146V31.0167H17.8647V11.456H6.48304V31.0167H0V4.50146H24.3478Z" fill="#001B71"/>
<path d="M56.9029 12.0705C57.6305 13.7901 58.0007 15.6738 58.0007 17.7328C58.0007 19.7918 57.6305 21.6756 56.9029 23.3952C56.1753 25.1147 55.1988 26.5822 53.9718 27.8197C52.7447 29.0575 51.3326 30.0212 49.7354 30.7002C48.1397 31.3903 46.4675 31.7298 44.7298 31.7298C42.7864 31.7298 41.1349 31.3903 39.7562 30.7222C38.3776 30.0541 37.465 29.2217 37.0309 28.225V41.9701H30.5479V4.50261H36.8235V7.28443C37.2687 6.2878 38.1926 5.45552 39.6047 4.78743C41.0152 4.11934 42.689 3.77979 44.6325 3.77979C46.4021 3.77979 48.0967 4.11934 49.7146 4.78743C51.3326 5.45552 52.7559 6.40827 53.9718 7.64584C55.1988 8.88342 56.1753 10.3619 56.9029 12.0705ZM50.9097 20.5914C51.2783 19.7152 51.473 18.7623 51.473 17.7328C51.473 16.7035 51.2895 15.7616 50.9097 14.8962C50.5284 14.0419 50.0178 13.2973 49.3556 12.6839C48.6934 12.0705 47.8892 11.5887 46.9558 11.2383C46.0223 10.8987 44.9899 10.7235 43.8714 10.7235C42.2439 10.7235 40.7886 11.0629 39.5393 11.731C38.2787 12.3991 37.4426 13.2315 37.0421 14.2281V21.2813C37.4538 22.278 38.2787 23.1104 39.5393 23.7785C40.7982 24.4466 42.2439 24.786 43.8714 24.786C44.9899 24.786 46.0223 24.6108 46.9558 24.2714C47.8892 23.9318 48.6934 23.4498 49.3556 22.8257C50.0178 22.2122 50.5396 21.4675 50.9097 20.5914Z" fill="#001B71"/>
<path d="M68.9804 4.50146V20.415L80.8711 4.50146H87.3542V31.0167H80.9684V15.114L69.0778 31.0167H62.5947V4.50146H68.9804Z" fill="#001B71"/>
<path d="M119.715 17.7875C119.715 19.8138 119.335 21.6756 118.596 23.3732C117.846 25.0708 116.836 26.5385 115.557 27.776C114.275 29.0136 112.809 29.9774 111.135 30.6783C109.465 31.3793 107.705 31.7299 105.826 31.7299C103.958 31.7299 102.188 31.3793 100.515 30.6783C98.8424 29.9774 97.3776 29.0026 96.0947 27.776C94.8246 26.5385 93.8034 25.0708 93.055 23.3732C92.3051 21.6756 91.9365 19.8138 91.9365 17.7875C91.9365 15.7943 92.3163 13.9433 93.055 12.2239C93.8034 10.5044 94.8134 9.02591 96.0947 7.76631C97.3776 6.51773 98.8424 5.53211 100.515 4.83115C102.177 4.13019 103.947 3.77979 105.826 3.77979C107.693 3.77979 109.465 4.13019 111.135 4.83115C112.809 5.53211 114.275 6.51773 115.557 7.76631C116.825 9.0149 117.846 10.5044 118.596 12.2239C119.335 13.9433 119.715 15.7943 119.715 17.7875ZM99.0387 14.9291C98.6589 15.8053 98.4738 16.758 98.4738 17.7875C98.4738 18.8172 98.6589 19.7589 99.0387 20.6242C99.4073 21.4785 99.929 22.2232 100.591 22.8366C101.253 23.4498 102.035 23.9318 102.937 24.2822C103.838 24.6218 104.794 24.797 105.815 24.797C106.837 24.797 107.791 24.6218 108.67 24.2822C109.549 23.9427 110.333 23.461 110.995 22.8366C111.657 22.2232 112.19 21.4785 112.579 20.6242C112.972 19.7699 113.166 18.8172 113.166 17.7875C113.166 16.758 112.972 15.8053 112.579 14.9291C112.19 14.0529 111.657 13.3081 110.995 12.6949C110.333 12.0815 109.56 11.5997 108.67 11.2493C107.78 10.9097 106.837 10.7344 105.815 10.7344C104.794 10.7344 103.827 10.9097 102.937 11.2493C102.035 11.5887 101.253 12.0705 100.591 12.6949C99.929 13.3081 99.4073 14.0529 99.0387 14.9291Z" fill="#001B71"/>
<path d="M150.557 12.0705C151.284 13.7901 151.653 15.6738 151.653 17.7328C151.653 19.7918 151.284 21.6756 150.557 23.3952C149.829 25.1147 148.851 26.5822 147.624 27.8197C146.397 29.0575 144.987 30.0212 143.389 30.7002C141.794 31.3903 140.12 31.7298 138.382 31.7298C136.439 31.7298 134.789 31.3903 133.409 30.7222C132.03 30.0541 131.117 29.2217 130.683 28.225V41.9701H124.2V4.50261H130.477V7.28443C130.923 6.2878 131.845 5.45552 133.257 4.78743C134.669 4.11934 136.341 3.77979 138.285 3.77979C140.056 3.77979 141.749 4.11934 143.367 4.78743C144.986 5.45552 146.408 6.40827 147.624 7.64584C148.84 8.88342 149.818 10.3619 150.557 12.0705ZM144.551 20.5914C144.919 19.7152 145.116 18.7623 145.116 17.7328C145.116 16.7035 144.931 15.7616 144.551 14.8962C144.171 14.0419 143.66 13.2973 142.998 12.6839C142.336 12.0705 141.532 11.5887 140.598 11.2383C139.665 10.8987 138.633 10.7235 137.514 10.7235C135.885 10.7235 134.43 11.0629 133.182 11.731C131.921 12.3991 131.085 13.2315 130.683 14.2281V21.2813C131.097 22.278 131.921 23.1104 133.182 23.7785C134.441 24.4466 135.885 24.786 137.514 24.786C138.633 24.786 139.665 24.6108 140.598 24.2714C141.532 23.9318 142.336 23.4498 142.998 22.8257C143.66 22.2014 144.182 21.4675 144.551 20.5914Z" fill="#001B71"/>
<path d="M162.61 4.50146V20.415L174.501 4.50146H180.984V31.0167H174.6V15.114L162.708 31.0167H156.225V4.50146H162.61Z" fill="#001B71"/>
<path d="M208.014 11.456H199.891V31.0167H193.41V11.456H185.296V4.50146H208.014V11.456Z" fill="#001B71"/>
<path d="M225.216 25.1453C226.845 25.1453 228.42 24.8497 229.909 24.2473C231.407 23.645 232.526 22.8454 233.274 21.8487L235.262 26.8978C234.447 28.2667 233.145 29.4167 231.353 30.3477C229.559 31.2786 227.444 31.7385 224.999 31.7385C222.99 31.7385 221.133 31.4099 219.406 30.7639C217.691 30.1066 216.204 29.1867 214.943 27.982C213.683 26.7772 212.695 25.3205 211.979 23.6121C211.262 21.8925 210.903 19.9539 210.903 17.7965C210.903 15.9127 211.218 14.1275 211.85 12.4409C212.478 10.7652 213.38 9.27564 214.553 7.98333C215.725 6.70188 217.137 5.67238 218.787 4.91669C220.439 4.161 222.295 3.78857 224.38 3.78857C226.324 3.78857 228.083 4.17185 229.658 4.94956C231.244 5.7161 232.59 6.74576 233.687 8.03806C234.795 9.33037 235.652 10.8089 236.261 12.4955C236.869 14.1822 237.183 15.9455 237.183 17.7965C237.183 18.1798 237.174 18.574 237.163 19.0012C237.14 19.4283 237.097 19.8008 237.032 20.1074H217.54C217.843 21.8598 218.69 23.1411 220.091 23.9406C221.503 24.74 223.209 25.1453 225.216 25.1453ZM230.581 14.7519C230.375 13.3499 229.69 12.2765 228.54 11.5319C227.377 10.798 225.998 10.4256 224.402 10.4256C222.805 10.4256 221.372 10.798 220.112 11.5319C218.853 12.2765 218.093 13.3389 217.822 14.7519H230.581Z" fill="#001B71"/>
<path d="M262.846 11.456H254.722V31.0167H248.25V11.456H240.127V4.50146H262.846V11.456Z" fill="#001B71"/>
<path d="M275.486 9.93338C274.845 9.93338 274.259 10.032 273.726 10.2292C273.184 10.4263 272.695 10.6891 272.26 11.0068C271.826 11.3243 271.424 11.6967 271.066 12.1129C270.707 12.529 270.402 12.9782 270.131 13.449L267.817 9.4515C268.015 8.6848 268.35 7.96198 268.827 7.28304C269.306 6.60394 269.893 6.01259 270.587 5.50869C271.283 5.00495 272.087 4.59966 272.998 4.30399C273.9 4.00832 274.888 3.85498 275.941 3.85498C277.31 3.85498 278.526 4.06305 279.579 4.47919C280.632 4.89533 281.513 5.47582 282.229 6.22066C282.934 6.96535 283.479 7.8305 283.847 8.81628C284.216 9.8019 284.401 10.8644 284.401 12.0034C284.401 12.9672 284.292 13.8543 284.075 14.6537C283.858 15.4533 283.533 16.2419 283.097 17.0084C282.663 17.7751 282.132 18.5527 281.502 19.3414C280.86 20.13 280.132 20.9951 279.296 21.937L276.659 24.9379H284.923V31.0163H268.025V26.307L275.55 18.0489C276.083 17.4576 276.549 16.9427 276.941 16.4938C277.332 16.0447 277.658 15.6285 277.918 15.2124C278.179 14.7961 278.374 14.413 278.505 14.0295C278.636 13.6463 278.711 13.2191 278.711 12.7481C278.711 11.9595 278.417 11.2914 277.841 10.7438C277.244 10.2072 276.474 9.93338 275.486 9.93338Z" fill="#EA0029"/>
<path d="M296.097 4.87347C297.781 4.19437 299.55 3.85498 301.43 3.85498C303.297 3.85498 305.066 4.19437 306.761 4.87347C308.444 5.55257 309.922 6.50533 311.181 7.73205C312.451 8.95861 313.45 10.4263 314.189 12.1349C314.927 13.8433 315.296 15.7161 315.296 17.7533C315.296 19.8123 314.927 21.6851 314.189 23.3827C313.45 25.0802 312.451 26.5478 311.181 27.7745C309.911 29.0012 308.444 29.954 306.761 30.6331C305.077 31.3122 303.297 31.6515 301.43 31.6515C299.561 31.6515 297.781 31.3122 296.097 30.6331C294.414 29.954 292.936 29.0012 291.677 27.7745C290.407 26.5478 289.407 25.0802 288.669 23.3827C287.931 21.6851 287.561 19.8123 287.561 17.7533C287.561 15.7161 287.931 13.8433 288.669 12.1349C289.407 10.4263 290.407 8.95861 291.677 7.73205C292.936 6.51634 294.414 5.56342 296.097 4.87347ZM301.43 25.5731C302.558 25.5731 303.622 25.3869 304.621 24.9927C305.62 24.6092 306.478 24.0726 307.206 23.3937C307.934 22.7146 308.498 21.8931 308.921 20.9404C309.335 19.9875 309.552 18.9251 309.552 17.7643C309.552 16.6252 309.346 15.5738 308.921 14.599C308.498 13.6353 307.934 12.8138 307.206 12.1237C306.478 11.4448 305.62 10.9082 304.621 10.5249C303.622 10.1415 302.558 9.94439 301.43 9.94439C300.278 9.94439 299.202 10.1415 298.226 10.5249C297.248 10.9082 296.391 11.4448 295.663 12.1237C294.936 12.803 294.36 13.6353 293.946 14.599C293.533 15.5628 293.318 16.6252 293.318 17.7643C293.318 18.9361 293.523 19.9875 293.946 20.9404C294.36 21.8931 294.936 22.7146 295.663 23.3937C296.391 24.0726 297.238 24.6092 298.226 24.9927C299.202 25.3759 300.267 25.5731 301.43 25.5731Z" fill="#EA0029"/>
<path d="M324.495 25.5954C325.667 25.5954 326.623 25.3106 327.34 24.7411C328.067 24.1716 328.426 23.4049 328.426 22.4412C328.426 21.5759 328.101 20.8859 327.448 20.3822C326.797 19.8784 325.928 19.6263 324.82 19.6263C324.061 19.6263 323.408 19.7141 322.856 19.8893C322.301 20.0645 321.889 20.2507 321.627 20.4479L320.705 16.297L325.222 10.5909H317.946V4.50146H332.682V8.83855L328.198 14.3914C328.838 14.5445 329.5 14.7965 330.196 15.1469C330.892 15.5083 331.531 16.0012 332.128 16.6256C332.715 17.2608 333.204 18.0493 333.583 19.0131C333.965 19.9769 334.148 21.1379 334.148 22.4959C334.148 23.7555 333.922 24.9382 333.465 26.0553C333.009 27.1615 332.368 28.1363 331.52 28.9686C330.673 29.801 329.664 30.4473 328.469 30.9291C327.274 31.411 325.95 31.652 324.483 31.652C323.376 31.652 322.388 31.5315 321.508 31.2795C320.628 31.0277 319.858 30.7101 319.196 30.2939C318.533 29.8886 317.978 29.4396 317.544 28.9357C317.099 28.443 316.785 27.9392 316.59 27.4135L317.914 22.5179C318.62 23.3831 319.489 24.1059 320.52 24.6864C321.563 25.2997 322.888 25.5954 324.495 25.5954Z" fill="#EA0029"/>
<path d="M345.322 4.87347C347.007 4.19437 348.776 3.85498 350.655 3.85498C352.523 3.85498 354.293 4.19437 355.987 4.87347C357.671 5.55257 359.146 6.50533 360.407 7.73205C361.677 8.95861 362.678 10.4263 363.415 12.1349C364.154 13.8433 364.522 15.7161 364.522 17.7533C364.522 19.8123 364.154 21.6851 363.415 23.3827C362.678 25.0802 361.677 26.5478 360.407 27.7745C359.135 29.0012 357.671 29.954 355.987 30.6331C354.304 31.3122 352.534 31.6515 350.655 31.6515C348.788 31.6515 347.007 31.3122 345.322 30.6331C343.64 29.954 342.163 29.0012 340.892 27.7745C339.622 26.5478 338.622 25.0802 337.885 23.3827C337.146 21.6851 336.777 19.8123 336.777 17.7533C336.777 15.7161 337.146 13.8433 337.885 12.1349C338.622 10.4263 339.622 8.95861 340.892 7.73205C342.163 6.51634 343.64 5.56342 345.322 4.87347ZM350.655 25.5731C351.784 25.5731 352.849 25.3869 353.847 24.9927C354.848 24.6092 355.705 24.0726 356.432 23.3937C357.16 22.7146 357.736 21.8931 358.148 20.9404C358.561 19.9875 358.778 18.9251 358.778 17.7643C358.778 16.6252 358.572 15.5738 358.148 14.599C357.736 13.6353 357.16 12.8138 356.432 12.1237C355.705 11.4448 354.848 10.9082 353.847 10.5249C352.849 10.1415 351.784 9.94439 350.655 9.94439C349.504 9.94439 348.429 10.1415 347.452 10.5249C346.463 10.9082 345.616 11.4448 344.888 12.1237C344.16 12.803 343.595 13.6353 343.173 14.599C342.75 15.5628 342.542 16.6252 342.542 17.7643C342.542 18.9361 342.75 19.9875 343.173 20.9404C343.595 21.8931 344.16 22.7146 344.888 23.3937C345.616 24.0726 346.463 24.6092 347.452 24.9927C348.429 25.3759 349.493 25.5731 350.655 25.5731Z" fill="#EA0029"/>
<path d="M378.476 0H373.21L367.139 10.6017H372.395L378.476 0Z" fill="#EA0029"/>
<path d="M373.211 0H378.477L384.548 10.6017H379.292L373.211 0Z" fill="#EA0029"/>
<path d="M18.744 57.6523V65.527L24.6303 57.6523H27.8439V70.7839H24.6845V62.9093L18.787 70.7839H15.583V57.6523H18.744Z" fill="#EA0029"/>
<path d="M31.1559 67.345C31.4271 66.885 31.6872 66.3702 31.9377 65.7898C32.1882 65.2094 32.4148 64.5742 32.6223 63.8622C32.8281 63.1613 32.9797 62.3947 33.0993 61.5841C33.219 60.7737 33.2733 59.8976 33.2733 58.9557V57.6523H42.6779V67.334H44.5018V74.2667H41.3966V70.7731H32.9254V74.2667H29.8203V67.334H31.1559V67.345ZM39.4627 67.345V61.1023H36.1518C35.9986 62.5808 35.7704 63.8183 35.4673 64.815C35.1625 65.8118 34.837 66.6551 34.478 67.345H39.4627Z" fill="#EA0029"/>
<path d="M52.9392 67.8701C53.7434 67.8701 54.5253 67.7168 55.2641 67.4211C56.0012 67.1254 56.5549 66.7311 56.9363 66.2383L57.924 68.7353C57.5219 69.4145 56.8708 69.984 55.99 70.4439C55.0997 70.9039 54.0577 71.1338 52.8419 71.1338C51.843 71.1338 50.9303 70.9696 50.0719 70.6521C49.2246 70.3344 48.4874 69.8744 47.8571 69.272C47.2269 68.6697 46.7498 67.9577 46.3907 67.1036C46.0333 66.2601 45.8594 65.2963 45.8594 64.2231C45.8594 63.2922 46.0109 62.4049 46.3253 61.5726C46.6412 60.7402 47.0864 60.0065 47.6624 59.3713C48.248 58.7361 48.9437 58.2322 49.7575 57.8597C50.5713 57.4875 51.4952 57.3013 52.5259 57.3013C53.4817 57.3013 54.3625 57.4875 55.1444 57.8709C55.9262 58.254 56.5884 58.7689 57.1421 59.4042C57.6846 60.0394 58.1186 60.7731 58.4234 61.6055C58.7281 62.4378 58.8797 63.3139 58.8797 64.234C58.8797 64.4202 58.8798 64.6172 58.8686 64.8363C58.8574 65.0444 58.8367 65.2308 58.8031 65.384H49.1496C49.3012 66.2493 49.7256 66.8845 50.4085 67.2788C51.1042 67.673 51.9404 67.8701 52.9392 67.8701ZM55.5895 62.7226C55.4906 62.0216 55.1539 61.496 54.5795 61.1345C54.0035 60.7731 53.319 60.587 52.5371 60.587C51.7552 60.587 51.0388 60.7731 50.4085 61.1345C49.7894 61.496 49.4096 62.0326 49.2692 62.7226H55.5895Z" fill="#EA0029"/>
<path d="M74.3336 61.3974C74.691 62.2517 74.8761 63.1826 74.8761 64.2011C74.8761 65.2196 74.691 66.1615 74.3336 67.005C73.9746 67.8591 73.4863 68.5821 72.8784 69.1953C72.2704 69.8086 71.5747 70.2797 70.7817 70.6192C69.9886 70.9588 69.1638 71.1338 68.3053 71.1338C67.3399 71.1338 66.5246 70.9696 65.84 70.6409C65.1571 70.3125 64.7119 69.8962 64.4837 69.4034V76.2047H61.2686V57.6517H64.3752V59.0317C64.5922 58.539 65.0486 58.1227 65.7539 57.7942C66.4496 57.4656 67.2857 57.3013 68.2415 57.3013C69.1207 57.3013 69.9568 57.4656 70.7594 57.7942C71.5636 58.1227 72.2592 58.5936 72.8672 59.2069C73.4863 59.8203 73.9634 60.5541 74.3336 61.3974ZM71.3577 65.614C71.5428 65.1759 71.6402 64.705 71.6402 64.2011C71.6402 63.6974 71.5428 63.2265 71.3577 62.7993C71.1726 62.372 70.9126 62.0106 70.587 61.7039C70.2599 61.3974 69.8594 61.1565 69.4031 60.9921C68.9356 60.8279 68.425 60.7402 67.8713 60.7402C67.0671 60.7402 66.3506 60.9045 65.7219 61.2331C65.0917 61.5616 64.6784 61.9779 64.4837 62.4706V65.9644C64.6896 66.4573 65.1028 66.8735 65.7219 67.202C66.341 67.5306 67.0575 67.6949 67.8713 67.6949C68.425 67.6949 68.9356 67.6073 69.4031 67.4431C69.869 67.2788 70.2599 67.0378 70.587 66.7311C70.9237 66.4245 71.1726 66.052 71.3577 65.614Z" fill="#EA0029"/>
<path d="M77.1029 59.6138C77.3423 59.2414 77.6342 58.9128 78.0044 58.6172C78.3618 58.3323 78.7639 58.0914 79.2091 57.8943C79.6447 57.6971 80.1107 57.5548 80.6101 57.4453C81.1096 57.3467 81.609 57.292 82.1084 57.292C82.9669 57.292 83.7487 57.4125 84.4444 57.6424C85.1385 57.8833 85.7464 58.2229 86.2459 58.661C86.7453 59.099 87.1474 59.6467 87.4187 60.3038C87.7011 60.961 87.832 61.7057 87.832 62.5381V70.7741H84.7268V69.6242C84.4109 70.1169 83.9114 70.4893 83.2381 70.7413C82.5647 70.9931 81.8707 71.1245 81.1638 71.1245C80.4697 71.1245 79.8394 71.0259 79.2634 70.8179C78.6889 70.6098 78.1895 70.325 77.7651 69.9637C77.3311 69.6023 77.0055 69.1531 76.7662 68.6165C76.5269 68.0797 76.4072 67.4774 76.4072 66.8203C76.4072 66.1195 76.5492 65.506 76.8205 64.9694C77.1029 64.4328 77.4715 63.9838 77.9502 63.6223C78.4161 63.2608 78.9602 62.9761 79.5793 62.7899C80.1984 62.6039 80.8271 62.5052 81.4909 62.5052C82.3366 62.5052 83.0211 62.6039 83.5541 62.8009C84.0854 62.998 84.4444 63.2062 84.6279 63.4251V63.0856C84.6279 62.319 84.379 61.7057 83.8795 61.2456C83.3801 60.7856 82.6525 60.5557 81.6968 60.5557C80.8718 60.5557 80.1219 60.7199 79.4597 61.0376C78.7975 61.3551 78.2645 61.7714 77.8736 62.2643L77.1029 59.6138ZM84.6279 66.0646C84.4986 65.8237 84.1939 65.6156 83.7487 65.4404C83.2924 65.2651 82.7722 65.1776 82.185 65.1776C81.3377 65.1776 80.7074 65.3089 80.2846 65.5827C79.8618 65.8566 79.6543 66.207 79.6543 66.6561C79.6543 67.0941 79.8713 67.4557 80.2958 67.7185C80.7298 67.9813 81.3489 68.1126 82.1531 68.1126C82.7387 68.1126 83.2605 68.0032 83.7168 67.7951C84.1732 67.587 84.4763 67.3242 84.6279 67.0175V66.0646Z" fill="#EA0029"/>
<path d="M102.578 57.6523H105.684L107.727 70.7839H104.545L103.415 63.8512L100.374 70.7839H97.8004L94.7703 63.8512L93.6086 70.7839H90.3408L92.3593 57.6523H95.249L98.9078 66.0417L102.578 57.6523Z" fill="#EA0029"/>
<path d="M113.492 57.6523V65.527L119.379 57.6523H122.594V70.7839H119.433V62.9093L113.548 70.7839H110.333V57.6523H113.492Z" fill="#EA0029"/>
<path d="M143.02 68.7902C142.629 69.4362 141.999 69.984 141.12 70.4439C140.24 70.9039 139.219 71.1338 138.057 71.1338C137.145 71.1338 136.288 70.9588 135.461 70.6192C134.648 70.2797 133.92 69.8086 133.29 69.1953C132.659 68.5821 132.162 67.8482 131.78 67.005C131.412 66.1617 131.227 65.2196 131.227 64.2011C131.227 63.1826 131.412 62.2407 131.78 61.3974C132.15 60.5431 132.65 59.8203 133.29 59.2069C133.931 58.5936 134.648 58.1227 135.461 57.7942C136.277 57.4656 137.145 57.3013 138.057 57.3013C139.219 57.3013 140.229 57.5314 141.076 57.9912C141.924 58.4512 142.543 58.9989 142.911 59.6231L141.999 62.3283C141.662 61.9232 141.185 61.5508 140.555 61.2331C139.936 60.9155 139.219 60.7512 138.405 60.7512C137.221 60.7512 136.288 61.0687 135.57 61.7039C134.865 62.3393 134.507 63.1826 134.507 64.2121C134.507 65.2525 134.865 66.0849 135.57 66.7311C136.277 67.3774 137.221 67.6949 138.405 67.6949C139.23 67.6949 139.958 67.5306 140.577 67.191C141.196 66.8516 141.684 66.4792 142.043 66.0741L143.02 68.7902Z" fill="#EA0029"/>
<path d="M155.498 61.0914H151.48V70.7839H148.276V61.0914H144.249V57.6523H155.498V61.0914Z" fill="#EA0029"/>
<path d="M157.42 59.6138C157.66 59.2414 157.953 58.9128 158.322 58.6172C158.681 58.3323 159.083 58.0914 159.528 57.8943C159.962 57.6971 160.428 57.5548 160.928 57.4453C161.429 57.3467 161.926 57.292 162.427 57.292C163.284 57.292 164.066 57.4125 164.762 57.6424C165.456 57.8833 166.065 58.2229 166.563 58.661C167.064 59.099 167.465 59.6467 167.736 60.3038C168.018 60.961 168.149 61.7057 168.149 62.5381V70.7741H165.044V69.6242C164.717 70.1169 164.229 70.4893 163.556 70.7413C162.884 70.9931 162.188 71.1245 161.481 71.1245C160.787 71.1245 160.157 71.0259 159.581 70.8179C159.006 70.6098 158.507 70.325 158.082 69.9637C157.648 69.6023 157.323 69.1531 157.084 68.6165C156.844 68.0797 156.725 67.4774 156.725 66.8203C156.725 66.1195 156.867 65.506 157.138 64.9694C157.42 64.4328 157.79 63.9838 158.268 63.6223C158.733 63.2608 159.278 62.9761 159.897 62.7899C160.516 62.6039 161.146 62.5052 161.807 62.5052C162.654 62.5052 163.339 62.6039 163.871 62.8009C164.403 62.998 164.762 63.2062 164.947 63.4251V63.0856C164.947 62.319 164.696 61.7057 164.197 61.2456C163.697 60.7856 162.97 60.5557 162.014 60.5557C161.189 60.5557 160.439 60.7199 159.777 61.0376C159.115 61.3551 158.582 61.7714 158.191 62.2643L157.42 59.6138ZM164.956 66.0646C164.826 65.8237 164.522 65.6156 164.077 65.4404C163.621 65.2651 163.099 65.1776 162.514 65.1776C161.666 65.1776 161.036 65.3089 160.624 65.5827C160.2 65.8566 159.994 66.207 159.994 66.6561C159.994 67.0941 160.211 67.4557 160.634 67.7185C161.069 67.9813 161.689 68.1126 162.491 68.1126C163.078 68.1126 163.6 68.0032 164.057 67.7951C164.511 67.587 164.816 67.3242 164.968 67.0175V66.0646H164.956Z" fill="#EA0029"/>
<path d="M174.533 57.6523V62.318H180.245V57.6523H183.449V70.7839H180.245V65.7569H174.533V70.7839H171.319V57.6523H174.533Z" fill="#EA0029"/>
<path d="M199.597 64.234C199.597 65.2416 199.414 66.1617 199.044 66.9939C198.675 67.8372 198.175 68.5601 197.545 69.1734C196.915 69.7868 196.187 70.2687 195.362 70.6082C194.537 70.9588 193.658 71.1338 192.734 71.1338C191.812 71.1338 190.933 70.9588 190.106 70.6082C189.281 70.2578 188.554 69.7758 187.924 69.1734C187.295 68.5601 186.794 67.8372 186.414 66.9939C186.045 66.1507 185.86 65.2308 185.86 64.234C185.86 63.2484 186.045 62.3283 186.414 61.485C186.783 60.6307 187.284 59.8969 187.924 59.2837C188.554 58.6593 189.281 58.1774 190.106 57.827C190.933 57.4765 191.812 57.3013 192.734 57.3013C193.658 57.3013 194.537 57.4765 195.362 57.827C196.187 58.1774 196.915 58.6593 197.545 59.2837C198.175 59.9079 198.675 60.6417 199.044 61.485C199.414 62.3283 199.597 63.2484 199.597 64.234ZM189.368 62.8102C189.184 63.2484 189.085 63.7192 189.085 64.2231C189.085 64.7379 189.173 65.1979 189.368 65.6249C189.553 66.052 189.813 66.4135 190.138 66.7201C190.465 67.0268 190.855 67.2678 191.3 67.4321C191.747 67.5963 192.225 67.6839 192.723 67.6839C193.234 67.6839 193.701 67.5963 194.135 67.4321C194.569 67.2567 194.96 67.0268 195.287 66.7201C195.613 66.4135 195.873 66.052 196.068 65.6249C196.264 65.1979 196.361 64.7379 196.361 64.2231C196.361 63.7192 196.264 63.2373 196.068 62.8102C195.873 62.372 195.613 62.0106 195.287 61.7039C194.96 61.3974 194.569 61.1565 194.135 60.9921C193.701 60.8279 193.223 60.7402 192.723 60.7402C192.225 60.7402 191.747 60.8279 191.3 60.9921C190.855 61.1565 190.465 61.3974 190.138 61.7039C189.813 62.0106 189.553 62.383 189.368 62.8102Z" fill="#EA0029"/>
<path d="M207.004 57.6523C207.666 57.6523 208.274 57.7289 208.85 57.8823C209.425 58.0356 209.915 58.2655 210.337 58.5832C210.76 58.9008 211.087 59.2842 211.336 59.7552C211.587 60.2261 211.706 60.7737 211.706 61.3979C211.706 61.9456 211.63 62.3836 211.467 62.7341C211.304 63.0845 211.065 63.4132 210.751 63.7197C211.239 64.0374 211.641 64.4427 211.955 64.9356C212.271 65.4175 212.423 66.0307 212.423 66.7864C212.423 67.4326 212.292 68.0021 212.032 68.495C211.77 68.9879 211.424 69.404 210.979 69.7436C210.545 70.083 210.033 70.3459 209.447 70.5211C208.86 70.6965 208.254 70.7839 207.612 70.7839H201.997V57.6523H207.004ZM205.081 60.6641V62.8875H207.352C207.743 62.8875 208.046 62.7778 208.263 62.5589C208.482 62.3398 208.589 62.0879 208.589 61.7922C208.589 61.4855 208.482 61.2227 208.263 61.0037C208.046 60.7847 207.732 60.6751 207.33 60.6751H205.081V60.6641ZM205.081 65.5051V67.7722H208.035C208.405 67.7722 208.697 67.6625 208.927 67.4545C209.142 67.2464 209.252 66.9616 209.252 66.6222C209.252 66.3374 209.142 66.0746 208.927 65.8446C208.708 65.6146 208.405 65.5051 208.014 65.5051H205.081Z" fill="#EA0029"/>
<path d="M224.217 57.6523V70.7839H221.004V66.885H219.938L217.31 70.7839H213.597L216.55 66.4031C215.791 66.0088 215.205 65.4722 214.781 64.7931C214.356 64.114 214.15 63.2927 214.15 62.318C214.15 61.5841 214.281 60.9379 214.53 60.3576C214.781 59.7771 215.127 59.2952 215.562 58.8899C215.997 58.4956 216.518 58.189 217.126 57.9699C217.734 57.7618 218.387 57.6523 219.07 57.6523H224.217ZM218.842 60.916C218.364 60.916 217.994 61.0585 217.734 61.3322C217.463 61.617 217.332 61.9456 217.332 62.3398C217.332 62.7451 217.472 63.0737 217.766 63.3256C218.049 63.5774 218.419 63.698 218.853 63.698H221.024V60.916H218.842Z" fill="#EA0029"/>
<path d="M237.563 61.0914H233.546V70.7839H230.342V61.0914H226.313V57.6523H237.563V61.0914Z" fill="#EA0029"/>
<path d="M250.474 68.7902C250.085 69.4362 249.454 69.984 248.574 70.4439C247.694 70.9039 246.675 71.1338 245.512 71.1338C244.6 71.1338 243.742 70.9588 242.917 70.6192C242.102 70.2797 241.374 69.8086 240.744 69.1953C240.115 68.5821 239.616 67.8482 239.236 67.005C238.866 66.1617 238.681 65.2196 238.681 64.2011C238.681 63.1826 238.866 62.2407 239.236 61.3974C239.605 60.5431 240.104 59.8203 240.744 59.2069C241.385 58.5936 242.102 58.1227 242.917 57.7942C243.731 57.4656 244.6 57.3013 245.512 57.3013C246.675 57.3013 247.683 57.5314 248.532 57.9912C249.378 58.4512 249.997 58.9989 250.365 59.6231L249.454 62.3283C249.118 61.9232 248.639 61.5508 248.009 61.2331C247.391 60.9155 246.673 60.7512 245.859 60.7512C244.675 60.7512 243.742 61.0687 243.026 61.7039C242.319 62.3393 241.961 63.1826 241.961 64.2121C241.961 65.2525 242.319 66.0849 243.026 66.7311C243.731 67.3774 244.675 67.6949 245.859 67.6949C246.684 67.6949 247.412 67.5306 248.031 67.191C248.65 66.8516 249.138 66.4792 249.497 66.0741L250.474 68.7902Z" fill="#EA0029"/>
<path d="M262.335 57.6523V70.7839H259.12V66.885H258.056L255.428 70.7839H251.715L254.668 66.4031C253.909 66.0088 253.322 65.4722 252.899 64.7931C252.474 64.114 252.269 63.2927 252.269 62.318C252.269 61.5841 252.398 60.9379 252.648 60.3576C252.899 59.7771 253.245 59.2952 253.681 58.8899C254.115 58.4956 254.648 58.189 255.244 57.9699C255.852 57.7618 256.503 57.6523 257.188 57.6523H262.335ZM256.949 60.916C256.471 60.916 256.103 61.0585 255.841 61.3322C255.57 61.617 255.439 61.9456 255.439 62.3398C255.439 62.7451 255.581 63.0737 255.873 63.3256C256.155 63.5774 256.526 63.698 256.96 63.698H259.131V60.916H256.949Z" fill="#EA0029"/>
<path d="M8.50348 57.6632L13.8903 70.7949L10.0241 70.7839L6.96048 63.0845L3.90965 70.7839H0.0322266L5.43029 57.6523L8.50348 57.6632Z" fill="#EA0029"/>
</g>
</svg>
