<svg width="13" height="16" viewBox="0 0 13 16" fill="none" xmlns="http://www.w3.org/2000/svg">
<path d="M2.51485e-06 0.800481L1.83876e-06 15.2009C0.00049787 15.3467 0.0441371 15.4896 0.126221 15.6142C0.208305 15.7389 0.325726 15.8405 0.465845 15.9083C0.605964 15.976 0.763475 16.0072 0.921424 15.9986C1.07937 15.99 1.23178 15.9418 1.36223 15.8593L12.649 8.65911C13.117 8.3607 13.117 7.64228 12.649 7.34307L1.36223 0.142863C1.23205 0.0595201 1.07957 0.0106461 0.921356 0.00155069C0.763145 -0.00754474 0.605254 0.0234863 0.464838 0.0912722C0.324423 0.159058 0.206851 0.261007 0.1249 0.386041C0.0429495 0.511075 -0.000247163 0.654413 2.51485e-06 0.800481Z" fill="#022B87"/>
</svg>
